# xmcd
#
# Track frame offsets: 
#        150
#        16397
#        50689
#        70187
#        86588
#        111462
#        124878
#        142587
#        162786
#        176361
#
# Disc length: 2533 seconds
#
# Revision: 0
# Processed by: cddbd v1.5.1PL0 Copyright (c) Steve Scherf et al.
# Submitted via: ExactAudioCopy v0.95a3
#
DISCID=8009e30a
DTITLE=Joss Stone - The Soul Sessions
DYEAR=2004
DGENRE=Soul
TTITLE0=The Chokin' Kind
TTITLE1=Super Duper Love
TTITLE2=Fell In Love With A Boy
TTITLE3=Victim Of A Foolish Heart
TTITLE4=Dirty Man
TTITLE5=Some Kind Of Wonderful
TTITLE6=I've Fallen In Love With You
TTITLE7=I Had A Dream
TTITLE8=All The King's Horses
TTITLE9=For The Love Of You (Pts. 1 and 2)
EXTD=
EXTT0=
EXTT1=
EXTT2=
EXTT3=
EXTT4=
EXTT5=
EXTT6=
EXTT7=
EXTT8=
EXTT9=
PLAYORDER=
